<?xml version="1.0" encoding="iso-8859-1"?>
<!-- Uploaded to: SVG Repo, www.svgrepo.com, Generator: SVG Repo Mixer Tools -->
<svg height="800px" width="800px" version="1.1" id="Layer_1" xmlns="http://www.w3.org/2000/svg" xmlns:xlink="http://www.w3.org/1999/xlink" 
	 viewBox="0 0 392.533 392.533" xml:space="preserve">
<path style="fill:#FFFFFF;" d="M359.854,21.786H32.743c-6.012,0-10.925,4.848-10.925,10.925v241.972
	c0,6.012,4.848,10.925,10.925,10.925h327.111c6.012,0,10.925-4.848,10.925-10.925V32.711
	C370.78,26.699,365.867,21.786,359.854,21.786z"/>
<path style="fill:#56ACE0;" d="M254.416,342.756l-8.792-35.362h-98.651l-8.792,35.362c-1.228,4.849-5.56,8.275-10.602,8.275h-24.824
	v19.717h187.022V351.03h-24.824C259.976,351.03,255.644,347.669,254.416,342.756z"/>
<path style="fill:#FFC10D;" d="M65.454,87.919h34.974c6.012,0,10.925,4.848,10.925,10.925c0,6.077-4.848,10.925-10.925,10.925
	H65.454v21.786h13.188c6.012,0,10.925,4.848,10.925,10.925c0,6.012-4.848,10.925-10.925,10.925H65.454v88.566h261.754V65.422H65.454
	V87.919z"/>
<g>
	<path style="fill:#194F82;" d="M359.854,0H32.743C14.707,0,0.032,14.675,0.032,32.711v241.972
		c0,18.036,14.675,32.711,32.711,32.711h91.798l-5.495,21.786H91.83c-6.012,0-10.925,4.848-10.925,10.925v41.503
		c0,6.012,4.848,10.925,10.925,10.925h208.873c6.012,0,10.925-4.848,10.925-10.925v-41.503c0-6.012-4.848-10.925-10.925-10.925
		h-27.216l-5.495-21.786h91.798c18.036,0,32.711-14.675,32.711-32.711V32.711C392.566,14.675,377.891,0,359.854,0z M289.778,351.03
		v19.717H102.82V351.03h24.824c5.042,0,9.374-3.426,10.602-8.275l8.792-35.362h98.586l8.792,35.362
		c1.228,4.848,5.56,8.275,10.602,8.275H289.778z M359.854,285.608H32.743c-6.012,0-10.925-4.848-10.925-10.925V32.711
		c0-6.012,4.848-10.925,10.925-10.925h327.111c6.012,0,10.925,4.848,10.925,10.925v242.036h0.065
		C370.78,280.695,365.931,285.608,359.854,285.608z"/>
	<path style="fill:#194F82;" d="M338.004,43.572H54.594c-6.012,0-10.925,4.848-10.925,10.925v198.335
		c0,6.012,4.848,10.925,10.925,10.925h283.539c6.012,0,10.925-4.848,10.925-10.925V54.562
		C348.994,48.549,344.016,43.572,338.004,43.572z M327.208,241.907h-0.065H65.454v-88.566h13.188
		c6.012,0,10.925-4.848,10.925-10.925c0-6.012-4.848-10.925-10.925-10.925H65.454V109.64h34.974c6.012,0,10.925-4.848,10.925-10.925
		c0-6.012-4.848-10.925-10.925-10.925H65.454V65.293h261.754V241.907L327.208,241.907z"/>
	<path style="fill:#194F82;" d="M109.155,161.099l34.521,34.521c6.723,6.206,13.317,2.133,15.451,0
		c4.267-4.267,4.267-11.119,0-15.451l-26.828-26.764l26.828-26.828c4.267-4.267,4.267-11.119,0-15.451
		c-4.267-4.267-11.119-4.267-15.451,0l-34.521,34.521C104.889,149.915,104.889,156.768,109.155,161.099z"/>
	<path style="fill:#194F82;" d="M233.535,195.62c4.978,5.042,12.283,3.556,15.451,0l34.521-34.521
		c4.267-4.267,4.267-11.119,0-15.451l-34.521-34.521c-4.267-4.267-11.119-4.267-15.451,0c-4.267,4.267-4.267,11.119,0,15.451
		l26.828,26.828l-26.828,26.828C229.269,184.436,229.269,191.289,233.535,195.62z"/>
	<path style="fill:#194F82;" d="M174.254,219.152c6.853,2.069,12.283-2.263,13.834-6.788l37.883-110.222
		c1.939-5.689-1.099-11.895-6.788-13.834c-5.689-1.939-11.895,1.099-13.834,6.788l-37.883,110.222
		C165.527,210.941,168.501,217.341,174.254,219.152z"/>
</g>
</svg>